<svg xmlns="http://www.w3.org/2000/svg" width="1164" height="321" viewBox="0 0 1164 321"><defs><style>.cls-1{fill:#0e7dc7;}.cls-2{fill:#fff;}</style></defs><title>sort_blå_blå_sort_logo</title><g id="Layer_2" data-name="Layer 2"><rect width="1164" height="321"/></g><g id="Layer_1" data-name="Layer 1"><polygon class="cls-1" points="49 35 35 126 95 126 100 80 156 126 227 126 161 77 233 35 167 35 101 72 107 35 49 35"/><path class="cls-1" d="M315,33S212,31,204,80s115,48,115,48,82-1,96-36h1s7,31,74,35H644l22-26h67l17,25,1,1h59L744,35H676l-81,78,5-41s-59-2-77,1l-1,17h32l-1,16s-88,13-83-24,92-28,92-28l39,3h1V44s-43-10-78-11a208.77,208.77,0,0,0-63,8s-32,8-43,29h-2S410,32,315,33Z"/><polygon points="707 54 683 80 724 80 708 53 707 54"/><ellipse cx="311.5" cy="80" rx="57.5" ry="29" transform="translate(-2.57 10.77) rotate(-1.97)"/><path class="cls-2" d="M160.32,246.46c.36,0,.54.36.54.72-9.54,33.3-28.08,46.62-54.72,46.62C76.8,293.8,57,275.62,57,243.58c0-41.76,22.86-79.37,62.82-79.37,27.36,0,46.08,18.17,45.54,43.91a.77.77,0,0,1-.72.72H160a.77.77,0,0,1-.72-.72c-.36-23.94-15.3-38.88-39.42-38.88-36.54,0-56.52,36-56.52,74,0,29.88,17.28,45.54,42.84,45.54,23,0,39.78-10.8,48.6-41.58a1.2,1.2,0,0,1,.9-.72Z"/><path class="cls-2" d="M192.07,292c-.36,0-.72-.36-.54-.72l15.84-66.78,13-57.78a1.22,1.22,0,0,1,.9-.72h68.94c.36,0,.72.37.54.72l-.9,3.6a1.2,1.2,0,0,1-.9.72H225.55l-11.88,50.4H274c.36,0,.72.36.54.72l-.9,3.6a1.2,1.2,0,0,1-.9.72h-60.3L198.73,287h64.8c.36,0,.72.36.54.72l-.72,3.6a1.2,1.2,0,0,1-.9.72Z"/><path class="cls-2" d="M322.55,226.84,308,291.28a1.2,1.2,0,0,1-.9.72h-4.86c-.36,0-.72-.36-.54-.72L317,226.84l13.68-60.12a1.22,1.22,0,0,1,.9-.72H335a1.51,1.51,0,0,1,1.08.72l55.62,116.1,3.78-16.74,9.36-39.24,13.5-60.12a1.22,1.22,0,0,1,.9-.72h4.86c.36,0,.72.37.54.72l-14.22,60.12-14.76,64.44a1.2,1.2,0,0,1-.9.72h-4.14a1.48,1.48,0,0,1-1.08-.72L334.25,176.62l-3.78,16.2Z"/><path class="cls-2" d="M471.12,292c-.36,0-.72-.36-.54-.72l14.4-61L498.3,171h-36c-.36,0-.72-.36-.54-.72l.9-3.6a1.22,1.22,0,0,1,.9-.72h78.3c.36,0,.72.37.54.72l-.9,3.6a1.2,1.2,0,0,1-.9.72h-36l-14,59.22-13.68,61a1.2,1.2,0,0,1-.9.72Z"/><path class="cls-2" d="M552,292c-.37,0-.73-.36-.54-.72l15.83-66.78,13-57.78a1.22,1.22,0,0,1,.9-.72h68.94c.36,0,.72.37.54.72l-.9,3.6a1.2,1.2,0,0,1-.9.72H585.47l-11.88,50.4h60.3c.36,0,.72.36.54.72l-.9,3.6a1.2,1.2,0,0,1-.9.72h-60.3L558.65,287h64.8c.36,0,.72.36.54.72l-.72,3.6a1.2,1.2,0,0,1-.9.72Z"/><path class="cls-2" d="M733.41,278l-16.74-43h-36L667.9,291.28a1.2,1.2,0,0,1-.9.72h-4.86c-.36,0-.72-.36-.54-.72L677.26,225l13.14-58.32c.18-.35.54-.72.89-.72h36c22.14,0,37.44,10.62,37.44,29.16,0,23-17.64,37.8-41.94,39.6l22.14,56.52c0,.36-.18.72-.54.72h-4.86c-.36,0-.9-.36-.9-.72Zm-50.57-52.74-1.08,4.68h36.17c25.2,0,40.5-13.68,40.5-34.74,0-15.48-12.06-24.12-30.42-24.12H695.62Z"/><circle class="cls-1" cx="976.5" cy="161.5" r="144.5"/><circle cx="1065" cy="122" r="34"/><path d="M868,90h143s17,1,15,18-13,82-13,82l61,48s8,13-1,20-17,4-17,4l-71-55s-3-4-3-11l11-76H917l52,30s7,6,6,12-6,15-6,15l-51,96s-6,8-17,3-7-20-7-20l46-88-82-47S842,101,868,90Z"/><polygon points="858 132 895 153 908 208 889.43 243.38 887 248 858 132"/></g></svg>
