<svg xmlns="http://www.w3.org/2000/svg" width="2119" height="321" viewBox="0 0 2119 321"><defs><style>.cls-1{fill:#0e7dc7;}</style></defs><title>hvid-blå-logo</title><g id="Layer_1" data-name="Layer 1"><polygon class="cls-1" points="459 80 345 80 227.63 145.63 238 80 138 80 113 239.41 217.21 239.41 225.89 159.52 323.15 239.41 446.46 239.41 331.83 154.31 459 80"/><path class="cls-1" d="M1458,240,1344.37,81.37h-118.1L1085.59,216.83l8.69-71.2s-102.47-3.48-133.73,1.73l-1.74,29.53h55.58l-1.74,27.79S859.81,227.26,868.5,163s159.78-48.62,159.78-48.62l67.73,5.21h1.74V97s-76-15.26-136.75-17S852.87,91.79,852.87,91.79s-55.58,13.89-74.69,50.36h-3.47S764,78.26,599,80c0,0-178.59-5.58-192.49,79.52S606,240,606,240s142.66,1.15,167-59.64h1.74S784.64,233.05,901,240h271l36.9-44h116.37L1355,240M595,209.86c-55.12,1.9-100.58-19.1-101.54-46.9s42.95-51.88,98.07-53.78,100.59,19.1,101.54,46.9S650.07,208,595,209.86Zm643.48-50.34,41.68-45.15,1.74-1.74,27.79,46.89Z"/><path class="cls-1" d="M1540.5,142a48.5,48.5,0,1,0,48.5,48.5A48.49,48.49,0,0,0,1540.5,142Zm-30,77.53-9.73-38.93,12.42,7.05,4.36,18.46L1511.27,218Zm62.43,3.36a6.2,6.2,0,0,1-5.71,1.34l-23.83-18.46a6.53,6.53,0,0,1-1-3.69l3.69-25.51h-25.51L1538,186.64s2.35,2,2,4a21,21,0,0,1-2,5l-17.11,32.22a4.57,4.57,0,0,1-5.71,1c-3.69-1.68-2.35-6.71-2.35-6.71l15.44-29.54-27.52-15.77s-5.37-6.72,3.35-10.41h48s5.71.34,5,6-4.36,27.53-4.36,27.53l20.47,16.11S1575.91,220.54,1572.89,222.89Zm-2.69-34.24a11.41,11.41,0,1,1,11.42-11.41A11.41,11.41,0,0,1,1570.2,188.65Z"/><path class="cls-1" d="M1804.3,159.82c0,44.22-32.41,80.4-111.65,80.4h-61.24V79.42h61.24C1771.89,79.42,1804.3,116.13,1804.3,159.82Zm-157.58-72.1V231.91h45c72.48,0,97.25-33.77,97.25-72.09,0-37.79-24.77-72.1-97.25-72.1Z"/><path class="cls-1" d="M1975.39,240.22,1856.53,162v78.26h-15.31V79.42h15.31V159l106.25-79.59h17.11l-107.6,80.4,122,80.4Z"/></g></svg>