<svg xmlns="http://www.w3.org/2000/svg" width="1918" height="321" viewBox="0 0 1918 321"><defs><style>.cls-1{fill:#fff;}</style></defs><title>sort_hvid_logo copy</title><g id="Layer_2" data-name="Layer 2"><rect width="1918" height="321"/></g><g id="Layer_1" data-name="Layer 1"><polygon class="cls-1" points="346 80 232 80 114.63 145.63 125 80 25 80 0 239.41 104.21 239.41 112.89 159.52 210.15 239.41 333.46 239.41 218.83 154.31 346 80"/><path class="cls-1" d="M1345,240,1231.37,81.37h-118.1L972.59,216.83l8.69-71.2s-102.47-3.48-133.73,1.73l-1.74,29.53h55.58l-1.74,27.79S746.81,227.26,755.5,163s159.78-48.62,159.78-48.62L983,119.58h1.74V97S908.79,81.74,848,80,739.87,91.79,739.87,91.79s-55.58,13.89-74.69,50.36h-3.47S651,78.26,486,80c0,0-178.59-5.58-192.49,79.52S493,240,493,240s142.66,1.15,167-59.64h1.74S671.64,233.05,788,240h271l36.9-44h116.37L1242,240M482,209.86c-55.12,1.9-100.58-19.1-101.54-46.9s42.95-51.88,98.07-53.78,100.59,19.1,101.54,46.9S537.07,208,482,209.86Zm643.48-50.34,41.68-45.15,1.74-1.74,27.79,46.89Z"/><path class="cls-1" d="M1431.5,142a48.5,48.5,0,1,0,48.5,48.5A48.49,48.49,0,0,0,1431.5,142Zm-30,77.53-9.73-38.93,12.42,7.05,4.36,18.46L1402.27,218Zm62.43,3.36a6.2,6.2,0,0,1-5.71,1.34l-23.83-18.46a6.53,6.53,0,0,1-1-3.69l3.69-25.51h-25.51L1429,186.64s2.35,2,2,4a21,21,0,0,1-2,5l-17.11,32.22a4.57,4.57,0,0,1-5.71,1c-3.69-1.68-2.35-6.71-2.35-6.71l15.44-29.54-27.52-15.77s-5.37-6.72,3.35-10.41h48s5.71.34,5,6-4.36,27.53-4.36,27.53l20.47,16.11S1466.91,220.54,1463.89,222.89Zm-2.69-34.24a11.41,11.41,0,1,1,11.42-11.41A11.41,11.41,0,0,1,1461.2,188.65Z"/><path class="cls-1" d="M1701.83,160.09c0,44.22-33.62,80.13-117.68,80.13h-60.61V79.42h60.61C1668.21,79.42,1701.83,115.87,1701.83,160.09ZM1584.15,82.63h-55.52V237h55.52c83.67,0,112.6-36.18,112.6-76.91S1667.82,82.63,1584.15,82.63Z"/><path class="cls-1" d="M1873.48,79.42h6.64l-121.2,82,137.23,78.79h-7.82l-135.67-78v78h-5.08V79.42h5.08v81.74Z"/></g></svg>