<svg xmlns="http://www.w3.org/2000/svg" width="2119" height="321" viewBox="0 0 2119 321"><defs><style>.cls-1{fill:#0e7dc7;}.cls-2{fill:#fff;}</style></defs><title>sort_hvid_logo copy 3</title><g id="Layer_2" data-name="Layer 2"><rect width="2119" height="321"/></g><g id="Layer_1" data-name="Layer 1"><polygon class="cls-1" points="459 80 345 80 227.63 145.63 238 80 138 80 113 239.41 217.21 239.41 225.89 159.52 323.15 239.41 446.46 239.41 331.83 154.31 459 80"/><path class="cls-1" d="M1458,240,1344.37,81.37h-118.1L1085.59,216.83l8.69-71.2s-102.47-3.48-133.73,1.73l-1.74,29.53h55.58l-1.74,27.79S859.81,227.26,868.5,163s159.78-48.62,159.78-48.62l67.73,5.21h1.74V97s-76-15.26-136.75-17S852.87,91.79,852.87,91.79s-55.58,13.89-74.69,50.36h-3.47S764,78.26,599,80c0,0-178.59-5.58-192.49,79.52S606,240,606,240s142.66,1.15,167-59.64h1.74S784.64,233.05,901,240h271l36.9-44h116.37L1355,240M595,209.86c-55.12,1.9-100.58-19.1-101.54-46.9s42.95-51.88,98.07-53.78,100.59,19.1,101.54,46.9S650.07,208,595,209.86Zm643.48-50.34,41.68-45.15,1.74-1.74,27.79,46.89Z"/><path class="cls-2" d="M1540.5,142a48.5,48.5,0,1,0,48.5,48.5A48.49,48.49,0,0,0,1540.5,142Zm-30,77.53-9.73-38.93,12.42,7.05,4.36,18.46L1511.27,218Zm62.43,3.36a6.2,6.2,0,0,1-5.71,1.34l-23.83-18.46a6.53,6.53,0,0,1-1-3.69l3.69-25.51h-25.51L1538,186.64s2.35,2,2,4a21,21,0,0,1-2,5l-17.11,32.22a4.57,4.57,0,0,1-5.71,1c-3.69-1.68-2.35-6.71-2.35-6.71l15.44-29.54-27.52-15.77s-5.37-6.72,3.35-10.41h48s5.71.34,5,6-4.36,27.53-4.36,27.53l20.47,16.11S1575.91,220.54,1572.89,222.89Zm-2.69-34.24a11.41,11.41,0,1,1,11.42-11.41A11.41,11.41,0,0,1,1570.2,188.65Z"/><path class="cls-2" d="M1814.83,160.09c0,44.22-33.62,80.13-117.68,80.13h-60.61V79.42h60.61C1781.21,79.42,1814.83,115.87,1814.83,160.09ZM1697.15,82.63h-55.52V237h55.52c83.67,0,112.6-36.18,112.6-76.91S1780.82,82.63,1697.15,82.63Z"/><path class="cls-2" d="M1986.48,79.42h6.64l-121.2,82,137.23,78.79h-7.82l-135.67-78v78h-5.08V79.42h5.08v81.74Z"/></g></svg>