<svg id="Layer_1" data-name="Layer 1" xmlns="http://www.w3.org/2000/svg" viewBox="0 0 24 24"><defs><style>.cls-1{fill:#0e7dc7;}</style></defs><title>instagram</title><path class="cls-1" d="M14.83,6.3H9.17A2.63,2.63,0,0,0,6.3,8.67a2.09,2.09,0,0,0,0,.5v5.66A2.63,2.63,0,0,0,8.67,17.7a2.09,2.09,0,0,0,.5,0h5.66a2.63,2.63,0,0,0,2.87-2.37,2.09,2.09,0,0,0,0-.5V9.17A2.63,2.63,0,0,0,15.33,6.3,2.09,2.09,0,0,0,14.83,6.3ZM12,15.6A3.6,3.6,0,1,1,15.6,12,3.6,3.6,0,0,1,12,15.6Zm3.74-6.5a.84.84,0,1,1,.84-.84.85.85,0,0,1-.84.84ZM14.33,12A2.33,2.33,0,1,1,12,9.67h0A2.33,2.33,0,0,1,14.33,12ZM12,0A12,12,0,1,0,24,12,12,12,0,0,0,12,0Zm7,14.89A3.87,3.87,0,0,1,15.39,19a4.17,4.17,0,0,1-.5,0H9.11A3.87,3.87,0,0,1,5,15.39a4.17,4.17,0,0,1,0-.5V9.11A3.87,3.87,0,0,1,8.61,5h6.28A3.87,3.87,0,0,1,19,8.61a4.17,4.17,0,0,1,0,.5v5.78Z"/></svg>
